HIERARCHY
ROOT Hips
{
	OFFSET 0.000000 0.000000 0.000000
	CHANNELS 6 Xposition Yposition Zposition Zrotation Yrotation Xrotation 
	JOINT LHipJoint
	{
		OFFSET 0.000000 0.000000 0.000000
		CHANNELS 3 Zrotation Yrotation Xrotation
		JOINT LeftUpLeg
		{
			OFFSET 1.363060 -1.794630 0.839290
			CHANNELS 3 Zrotation Yrotation Xrotation
			JOINT LeftLeg
			{
				OFFSET 2.448110 -6.726130 0.000000
				CHANNELS 3 Zrotation Yrotation Xrotation
				JOINT LeftFoot
				{
					OFFSET 2.562200 -7.039590 0.000000
					CHANNELS 3 Zrotation Yrotation Xrotation
					JOINT LeftToeBase
					{
						OFFSET 0.157640 -0.433110 2.322550
						CHANNELS 3 Zrotation Yrotation Xrotation
						End Site
						{
							OFFSET 0.000000 0.000000 0.000000
						}
					}
				}
			}
		}
	}
	JOINT RHipJoint
	{
		OFFSET 0.000000 0.000000 0.000000
		CHANNELS 3 Zrotation Yrotation Xrotation
		JOINT RightUpLeg
		{
			OFFSET -1.305520 -1.794630 0.839290
			CHANNELS 3 Zrotation Yrotation Xrotation
			JOINT RightLeg
			{
				OFFSET -2.542530 -6.985550 0.000000
				CHANNELS 3 Zrotation Yrotation Xrotation
				JOINT RightFoot
				{
					OFFSET -2.568260 -7.056230 0.000000
					CHANNELS 3 Zrotation Yrotation Xrotation
					JOINT RightToeBase
					{
						OFFSET -0.164730 -0.452590 2.363150
						CHANNELS 3 Zrotation Yrotation Xrotation
						End Site
						{
							OFFSET 0.000000 0.000000 0.000000
						}
					}
				}
			}
		}
	}
	JOINT LowerBack
	{
		OFFSET 0.000000 0.000000 0.000000
		CHANNELS 3 Zrotation Yrotation Xrotation
		JOINT Spine
		{
			OFFSET 0.028270 2.035590 -0.193380
			CHANNELS 3 Zrotation Yrotation Xrotation
			JOINT Spine1
			{
				OFFSET 0.056720 2.048850 -0.042750
				CHANNELS 3 Zrotation Yrotation Xrotation
				JOINT Neck
				{
					OFFSET 0.000000 0.000000 0.000000
					CHANNELS 3 Zrotation Yrotation Xrotation
					JOINT Neck1
					{
						OFFSET -0.054170 1.746240 0.172020
						CHANNELS 3 Zrotation Yrotation Xrotation
						JOINT Head
						{
							OFFSET 0.104070 1.761360 -0.123970
							CHANNELS 3 Zrotation Yrotation Xrotation
							End Site
							{
								OFFSET 0.000000 0.000000 0.000000
							}
						}
					}
				}
				JOINT LeftShoulder
				{
					OFFSET 0.000000 0.000000 0.000000
					CHANNELS 3 Zrotation Yrotation Xrotation
					JOINT LeftArm
					{
						OFFSET 3.362410 1.200890 -0.311210
						CHANNELS 3 Zrotation Yrotation Xrotation
						JOINT LeftForeArm
						{
							OFFSET 4.983000 -0.000000 -0.000000
							CHANNELS 3 Zrotation Yrotation Xrotation
							JOINT LeftHand
							{
								OFFSET 3.483560 -0.000000 -0.000000
								CHANNELS 3 Zrotation Yrotation Xrotation
								JOINT LeftFingerBase
								{
									OFFSET 0.000000 0.000000 0.000000
									CHANNELS 3 Zrotation Yrotation Xrotation
									JOINT LeftHandIndex1
									{
										OFFSET 0.715260 -0.000000 -0.000000
										CHANNELS 3 Zrotation Yrotation Xrotation
										End Site
										{
											OFFSET 0.000000 0.000000 0.000000
										}
									}
								}
								JOINT LThumb
								{
									OFFSET 0.000000 0.000000 0.000000
									CHANNELS 3 Zrotation Yrotation Xrotation
									End Site
									{
										OFFSET 0.000000 0.000000 0.000000
									}
								}
							}
						}
					}
				}
				JOINT RightShoulder
				{
					OFFSET 0.000000 0.000000 0.000000
					CHANNELS 3 Zrotation Yrotation Xrotation
					JOINT RightArm
					{
						OFFSET -3.136600 1.374050 -0.404650
						CHANNELS 3 Zrotation Yrotation Xrotation
						JOINT RightForeArm
						{
							OFFSET -5.241900 -0.000000 -0.000000
							CHANNELS 3 Zrotation Yrotation Xrotation
							JOINT RightHand
							{
								OFFSET -3.444170 -0.000000 -0.000000
								CHANNELS 3 Zrotation Yrotation Xrotation
								JOINT RightFingerBase
								{
									OFFSET 0.000000 0.000000 0.000000
									CHANNELS 3 Zrotation Yrotation Xrotation
									JOINT RightHandIndex1
									{
										OFFSET -0.622530 -0.000000 -0.000000
										CHANNELS 3 Zrotation Yrotation Xrotation
										End Site
										{
											OFFSET 0.000000 0.000000 0.000000
										}
									}
								}
								JOINT RThumb
								{
									OFFSET 0.000000 0.000000 0.000000
									CHANNELS 3 Zrotation Yrotation Xrotation
									End Site
									{
										OFFSET 0.000000 0.000000 0.000000
									}
								}
							}
						}
					}
				}
			}
		}
	}
}
MOTION
Frames: 4
Frame Time: 0.008333
-0.586784 17.393360 -24.983266 -3.900905 3.236849 11.199882 -4.228214 -3.533945 -2.930805 -2.357373 -5.039067 -41.397784 2.248106 11.202724 30.901610 -2.742739 11.955055 2.609863 0.758200 -5.561100 -15.516100 4.258370 1.798523 1.675242 21.997869 -4.256056 1.984734 0.482128 -4.120442 10.121084 4.418293 -19.452256 -12.931885 -0.147900 2.478100 -6.828800 5.861550 2.612138 9.406997 2.756666 4.090492 -1.270196 -1.197887 2.085141 -4.117913 1.297442 -1.226792 -21.687903 1.040939 -2.148376 9.673405 -2.953500 -1.125200 8.881000 3.717193 -1.128483 0.171799 -91.848363 6.989688 24.000433 17.235344 -26.814438 -3.789088 0.167961 0.388471 -9.522658 11.683937 0.621171 0.052400 -7.125000 0.000000 0.000000 -11.878700 30.127600 4.396700 -3.001622 1.598525 0.053219 87.021977 3.134679 20.292847 -11.825709 20.319445 -2.114567 0.052048 -0.470537 -1.519856 -14.342714 -3.689586 0.820600 7.125000 0.000000 0.000000 9.931900 -33.166400 2.917900 
-0.571331 17.370730 -24.850378 -3.885630 3.107015 11.358802 -4.179894 -3.533552 -2.961295 -2.413665 -4.940797 -41.860720 2.328402 11.312853 31.274856 -2.677342 11.750612 2.671291 0.761900 -5.574400 -15.554400 4.238337 1.776715 1.694833 22.007541 -4.117645 2.582980 0.505511 -3.966216 9.670011 4.534022 -19.849632 -12.802978 -0.167900 2.639500 -7.276700 5.826990 2.731808 9.447171 2.724686 4.245045 -1.240304 -1.237660 2.164030 -4.098795 1.269571 -1.268077 -21.743896 1.064758 -2.202698 9.600271 -2.947400 -1.154300 8.862200 3.718807 -1.124671 0.171684 -91.823392 7.054772 23.822118 17.096560 -26.630339 -3.731412 0.170147 0.386291 -9.333385 11.691770 0.584923 0.045400 -7.125000 0.000000 0.000000 -11.868900 30.093400 4.402900 -3.001612 1.593186 0.048837 86.997066 3.513044 20.784732 -11.970037 20.522712 -2.157543 0.053624 -0.471970 -1.730328 -14.346108 -3.601952 0.797900 7.125000 0.000000 0.000000 9.917900 -33.075800 2.935800 
-0.554085 17.346904 -24.712106 -3.841256 2.996983 11.500906 -4.132606 -3.529268 -2.983588 -2.530030 -4.837746 -42.303689 2.442967 11.472371 31.822419 -2.587186 11.450356 2.667000 0.763500 -5.580100 -15.570800 4.215317 1.754898 1.714781 21.981911 -4.111811 3.160577 0.523564 -3.826088 9.259915 4.630118 -20.179604 -12.668536 -0.193500 2.833200 -7.814600 5.773590 2.842323 9.452093 2.686048 4.381140 -1.192421 -1.270356 2.234945 -4.040489 1.247416 -1.294970 -21.807419 1.088920 -2.240193 9.510831 -2.940200 -1.176300 8.839300 3.720786 -1.121820 0.171608 -91.802249 7.084414 23.609219 16.940506 -26.424042 -3.667350 0.172325 0.384527 -9.129427 11.703184 0.574846 0.043700 -7.125000 0.000000 0.000000 -11.859400 30.084700 4.401700 -3.000876 1.586088 0.045065 86.962327 3.887372 21.314943 -12.149455 20.773435 -2.211824 0.056073 -0.474011 -1.988404 -14.347955 -3.533323 0.779900 7.125000 0.000000 0.000000 9.907300 -33.003600 2.950100 
-0.535542 17.321981 -24.569746 -3.775550 2.906952 11.631078 -4.086541 -3.520652 -2.997716 -2.689650 -4.738864 -42.726831 2.589368 11.674598 32.523497 -2.478158 11.074389 2.596364 0.767600 -5.594600 -15.612500 4.190772 1.731675 1.734179 21.934004 -4.135149 3.750283 0.538310 -3.696043 8.877052 4.730220 -20.526645 -12.553704 -0.223800 3.045100 -8.404400 5.704895 2.941621 9.468064 2.642584 4.502994 -1.163452 -1.300174 2.298599 -4.014830 1.245029 -1.306653 -21.827892 1.092415 -2.263775 9.417182 -2.941400 -1.192600 8.807600 3.723075 -1.122386 0.171857 -91.784131 7.148175 23.359377 16.771712 -26.199749 -3.598728 0.175107 0.382319 -8.903609 11.725504 0.549153 0.038900 -7.125000 0.000000 0.000000 -11.840000 30.061100 4.401100 -2.998798 1.578780 0.042158 86.922787 4.190114 21.886245 -12.373435 21.083429 -2.280715 0.059405 -0.476968 -2.312687 -14.363022 -3.480972 0.766500 7.125000 0.000000 0.000000 9.887700 -32.947500 2.957700 
